<svg width="1091" height="211" viewBox="0 0 1091 211" fill="none" xmlns="http://www.w3.org/2000/svg">
<path fill-rule="evenodd" clip-rule="evenodd" d="M126.231 0L160.193 33.9619V196.875C160.193 204.607 153.925 210.875 146.193 210.875H14C6.26803 210.875 0 204.607 0 196.875V14C0 6.26801 6.26802 0 14 0H126.231ZM152.193 37.2756V196.875C152.193 200.188 149.507 202.875 146.193 202.875H14C10.6863 202.875 8 200.188 8 196.875V14C8 10.6863 10.6863 8 14 8H122.917L152.193 37.2756Z" fill="#5769A8"/>
<path fill-rule="evenodd" clip-rule="evenodd" d="M122.917 8H14C10.6863 8 8 10.6863 8 14V196.875C8 200.188 10.6863 202.875 14 202.875H62.2508V148.341C62.2508 146.132 64.0417 144.341 66.2508 144.341H94.656C96.8651 144.341 98.656 146.132 98.656 148.341V202.875H146.193C149.507 202.875 152.193 200.188 152.193 196.875V37.2756L122.917 8ZM34.8424 53.6849C32.6333 53.6849 30.8424 55.4757 30.8424 57.6849V65.3891C30.8424 67.5982 32.6333 69.3891 34.8425 69.3891H125.35C127.56 69.3891 129.35 67.5982 129.35 65.3891V57.6849C129.35 55.4757 127.56 53.6849 125.35 53.6849H34.8424ZM30.8424 83.3826C30.8424 81.1735 32.6333 79.3826 34.8424 79.3826H125.35C127.56 79.3826 129.35 81.1735 129.35 83.3826V91.0868C129.35 93.296 127.56 95.0868 125.35 95.0868H34.8425C32.6333 95.0868 30.8424 93.296 30.8424 91.0868V83.3826ZM34.8424 105.08C32.6333 105.08 30.8424 106.871 30.8424 109.08V116.785C30.8424 118.994 32.6333 120.785 34.8425 120.785H125.35C127.56 120.785 129.35 118.994 129.35 116.785V109.08C129.35 106.871 127.56 105.08 125.35 105.08H34.8424Z" fill="#667BC6"/>
<path fill-rule="evenodd" clip-rule="evenodd" d="M122.917 8L152.193 37.2756H127.2C124.835 37.2756 122.917 35.3581 122.917 32.9926V8Z" fill="black" fill-opacity="0.15"/>
<path d="M997.975 58.8421C999.203 58.4737 1001.17 58.1052 1003.87 57.7368C1006.57 57.2456 1009.33 57 1012.16 57C1014.86 57 1017.26 57.1842 1019.34 57.5526C1021.55 57.921 1023.4 58.6579 1024.87 59.7631C1026.34 60.8684 1027.45 62.4034 1028.18 64.3683C1028.92 66.2104 1029.29 68.6665 1029.29 71.7367V89.7891C1032.36 88.561 1035.25 87.7014 1037.95 87.2101C1040.77 86.7189 1043.84 86.4733 1047.16 86.4733C1053.05 86.4733 1058.64 87.5172 1063.92 89.6048C1069.2 91.6925 1073.87 94.7627 1077.92 98.8153C1081.97 102.745 1085.17 107.657 1087.5 113.552C1089.83 119.447 1091 126.262 1091 133.999C1091 141.981 1089.77 148.981 1087.32 154.999C1084.98 160.893 1081.67 165.806 1077.37 169.735C1073.07 173.665 1067.79 176.674 1061.53 178.762C1055.39 180.727 1048.57 181.709 1041.08 181.709C1032.97 181.709 1026.1 180.727 1020.45 178.762C1014.8 176.92 1010.01 174.586 1006.08 171.762C1000.68 167.955 997.975 163.043 997.975 157.025V58.8421ZM1041.08 157.025C1046.73 157.025 1051.09 155.122 1054.16 151.315C1057.35 147.385 1058.95 141.613 1058.95 133.999C1058.95 126.262 1057.35 120.49 1054.16 116.683C1050.97 112.876 1046.67 110.973 1041.26 110.973C1038.81 110.973 1036.66 111.219 1034.82 111.71C1033.1 112.201 1031.19 112.938 1029.11 113.92V154.078C1030.46 154.937 1032.05 155.674 1033.9 156.288C1035.86 156.779 1038.25 157.025 1041.08 157.025Z" fill="#1A2130"/>
<path d="M890.391 90.5259C891.62 90.1575 893.523 89.7891 896.102 89.4207C898.804 89.0522 901.567 88.868 904.391 88.868C907.093 88.868 909.488 89.0522 911.575 89.4207C913.786 89.7891 915.628 90.5259 917.102 91.6312C918.575 92.7364 919.681 94.2715 920.417 96.2364C921.277 98.0784 921.707 100.535 921.707 103.605V143.209C921.707 148.244 922.935 151.867 925.391 154.078C927.847 156.165 931.409 157.209 936.075 157.209C938.9 157.209 941.171 156.964 942.891 156.472C944.733 155.981 946.145 155.49 947.128 154.999V90.5259C948.356 90.1575 950.259 89.7891 952.838 89.4207C955.54 89.0522 958.303 88.868 961.127 88.868C963.829 88.868 966.224 89.0522 968.311 89.4207C970.522 89.7891 972.364 90.5259 973.838 91.6312C975.311 92.7364 976.417 94.2715 977.153 96.2364C978.013 98.0784 978.443 100.535 978.443 103.605V159.604C978.443 165.744 975.864 170.349 970.706 173.42C966.408 176.121 961.25 178.148 955.233 179.498C949.338 180.972 942.891 181.709 935.891 181.709C929.259 181.709 923.119 180.972 917.47 179.498C911.944 178.025 907.154 175.753 903.102 172.683C899.049 169.613 895.918 165.683 893.707 160.893C891.497 155.981 890.391 150.087 890.391 143.209V90.5259Z" fill="#1A2130"/>
<path d="M868.862 178.025C867.511 178.393 865.362 178.762 862.415 179.13C859.59 179.498 856.766 179.683 853.941 179.683C851.117 179.683 848.599 179.437 846.389 178.946C844.301 178.577 842.52 177.841 841.047 176.735C839.573 175.63 838.468 174.095 837.731 172.13C836.994 170.165 836.626 167.586 836.626 164.393V135.657H801.258V178.025C799.907 178.393 797.758 178.762 794.81 179.13C791.986 179.498 789.161 179.683 786.337 179.683C783.512 179.683 780.995 179.437 778.784 178.946C776.697 178.577 774.916 177.841 773.442 176.735C771.969 175.63 770.863 174.095 770.127 172.13C769.39 170.165 769.021 167.586 769.021 164.393V67.1314C770.372 66.8858 772.521 66.5788 775.469 66.2104C778.416 65.7192 781.24 65.4736 783.942 65.4736C786.767 65.4736 789.223 65.7192 791.31 66.2104C793.521 66.5788 795.363 67.3157 796.837 68.4209C798.31 69.5262 799.416 71.0612 800.152 73.0261C800.889 74.991 801.258 77.5699 801.258 80.7629V110.236H836.626V67.1314C837.977 66.8858 840.126 66.5788 843.073 66.2104C846.02 65.7192 848.845 65.4736 851.547 65.4736C854.371 65.4736 856.827 65.7192 858.915 66.2104C861.125 66.5788 862.967 67.3157 864.441 68.4209C865.915 69.5262 867.02 71.0612 867.757 73.0261C868.494 74.991 868.862 77.5699 868.862 80.7629V178.025Z" fill="#1A2130"/>
<path d="M715.968 122.026C715.968 118.219 714.863 115.455 712.652 113.736C710.564 111.894 707.678 110.973 703.994 110.973C701.538 110.973 699.082 111.28 696.626 111.894C694.293 112.508 692.266 113.429 690.547 114.657V178.577C689.319 178.946 687.354 179.314 684.652 179.683C682.074 180.051 679.372 180.235 676.547 180.235C673.846 180.235 671.389 180.051 669.179 179.683C667.091 179.314 665.311 178.577 663.837 177.472C662.363 176.367 661.197 174.893 660.337 173.051C659.6 171.086 659.232 168.569 659.232 165.499V110.236C659.232 106.92 659.907 104.219 661.258 102.131C662.732 100.043 664.697 98.1398 667.153 96.4206C671.328 93.4732 676.547 91.0785 682.81 89.2364C689.196 87.3944 696.258 86.4733 703.994 86.4733C717.871 86.4733 728.555 89.5435 736.047 95.6837C743.538 101.701 747.283 110.113 747.283 120.92V178.577C746.055 178.946 744.09 179.314 741.389 179.683C738.81 180.051 736.108 180.235 733.283 180.235C730.582 180.235 728.126 180.051 725.915 179.683C723.827 179.314 722.047 178.577 720.573 177.472C719.099 176.367 717.933 174.893 717.073 173.051C716.336 171.086 715.968 168.569 715.968 165.499V122.026Z" fill="#1A2130"/>
<path d="M597.348 158.867C599.436 158.867 601.707 158.683 604.164 158.315C606.742 157.823 608.646 157.209 609.874 156.472V141.736L596.611 142.841C593.172 143.087 590.348 143.823 588.137 145.052C585.927 146.28 584.822 148.122 584.822 150.578C584.822 153.034 585.743 155.06 587.585 156.657C589.55 158.13 592.804 158.867 597.348 158.867ZM595.874 86.4733C602.506 86.4733 608.523 87.1488 613.927 88.4996C619.453 89.8505 624.119 91.9382 627.926 94.7627C631.856 97.4644 634.865 100.964 636.953 105.263C639.04 109.438 640.084 114.412 640.084 120.183V161.446C640.084 164.639 639.163 167.279 637.321 169.367C635.602 171.332 633.514 173.051 631.058 174.525C623.076 179.314 611.839 181.709 597.348 181.709C590.839 181.709 584.944 181.095 579.664 179.867C574.506 178.639 570.024 176.797 566.217 174.341C562.532 171.885 559.647 168.753 557.559 164.946C555.594 161.139 554.612 156.718 554.612 151.683C554.612 143.209 557.129 136.701 562.164 132.157C567.199 127.613 574.997 124.789 585.559 123.683L609.69 121.104V119.815C609.69 116.254 608.093 113.736 604.9 112.262C601.83 110.666 597.348 109.868 591.453 109.868C586.787 109.868 582.243 110.359 577.822 111.341C573.401 112.324 569.41 113.552 565.848 115.026C564.252 113.92 562.901 112.262 561.796 110.052C560.69 107.719 560.138 105.324 560.138 102.868C560.138 99.6749 560.875 97.1574 562.348 95.3153C563.945 93.3504 566.339 91.6926 569.532 90.3417C573.094 88.9908 577.269 88.0084 582.059 87.3944C586.971 86.7803 591.576 86.4733 595.874 86.4733Z" fill="#1A2130"/>
<path d="M446.168 86.4733C451.203 86.4733 456.115 87.2102 460.904 88.6838C465.817 90.0347 470.053 92.1224 473.615 94.9469C477.299 92.4908 481.413 90.4645 485.957 88.868C490.623 87.2716 496.211 86.4733 502.72 86.4733C507.386 86.4733 511.93 87.0874 516.351 88.3154C520.895 89.5435 524.886 91.5084 528.324 94.2101C531.886 96.789 534.71 100.289 536.798 104.71C538.886 109.008 539.93 114.289 539.93 120.552V178.577C538.702 178.946 536.737 179.314 534.035 179.683C531.456 180.051 528.754 180.235 525.93 180.235C523.228 180.235 520.772 180.051 518.561 179.683C516.474 179.314 514.693 178.577 513.219 177.472C511.746 176.367 510.579 174.893 509.719 173.051C508.983 171.086 508.614 168.569 508.614 165.499V121.473C508.614 117.789 507.57 115.148 505.483 113.552C503.395 111.833 500.57 110.973 497.009 110.973C495.29 110.973 493.448 111.403 491.483 112.262C489.518 112.999 488.044 113.798 487.062 114.657C487.185 115.148 487.246 115.64 487.246 116.131C487.246 116.499 487.246 116.868 487.246 117.236V178.577C485.895 178.946 483.869 179.314 481.167 179.683C478.588 180.051 475.948 180.235 473.246 180.235C470.545 180.235 468.088 180.051 465.878 179.683C463.79 179.314 462.01 178.577 460.536 177.472C459.062 176.367 457.896 174.893 457.036 173.051C456.299 171.086 455.931 168.569 455.931 165.499V121.473C455.931 117.789 454.764 115.148 452.431 113.552C450.22 111.833 447.518 110.973 444.326 110.973C442.115 110.973 440.212 111.341 438.615 112.078C437.019 112.692 435.668 113.306 434.563 113.92V178.577C433.334 178.946 431.37 179.314 428.668 179.683C426.089 180.051 423.387 180.235 420.563 180.235C417.861 180.235 415.405 180.051 413.194 179.683C411.107 179.314 409.326 178.577 407.852 177.472C406.379 176.367 405.212 174.893 404.352 173.051C403.616 171.086 403.247 168.569 403.247 165.499V109.868C403.247 106.552 403.923 103.912 405.273 101.947C406.747 99.9819 408.712 98.1398 411.168 96.4206C415.343 93.4732 420.501 91.0785 426.642 89.2364C432.905 87.3944 439.413 86.4733 446.168 86.4733Z" fill="#1A2130"/>
<path d="M341.363 158.867C343.451 158.867 345.723 158.683 348.179 158.315C350.758 157.823 352.661 157.209 353.889 156.472V141.736L340.626 142.841C337.188 143.087 334.363 143.823 332.153 145.052C329.942 146.28 328.837 148.122 328.837 150.578C328.837 153.034 329.758 155.06 331.6 156.657C333.565 158.13 336.819 158.867 341.363 158.867ZM339.89 86.4733C346.521 86.4733 352.539 87.1488 357.942 88.4996C363.468 89.8505 368.135 91.9382 371.942 94.7627C375.872 97.4644 378.88 100.964 380.968 105.263C383.056 109.438 384.1 114.412 384.1 120.183V161.446C384.1 164.639 383.179 167.279 381.336 169.367C379.617 171.332 377.529 173.051 375.073 174.525C367.091 179.314 355.854 181.709 341.363 181.709C334.855 181.709 328.96 181.095 323.679 179.867C318.521 178.639 314.039 176.797 310.232 174.341C306.548 171.885 303.662 168.753 301.574 164.946C299.609 161.139 298.627 156.718 298.627 151.683C298.627 143.209 301.144 136.701 306.179 132.157C311.215 127.613 319.013 124.789 329.574 123.683L353.705 121.104V119.815C353.705 116.254 352.109 113.736 348.916 112.262C345.846 110.666 341.363 109.868 335.469 109.868C330.802 109.868 326.258 110.359 321.837 111.341C317.416 112.324 313.425 113.552 309.864 115.026C308.267 113.92 306.916 112.262 305.811 110.052C304.706 107.719 304.153 105.324 304.153 102.868C304.153 99.6749 304.89 97.1574 306.364 95.3153C307.96 93.3504 310.355 91.6926 313.548 90.3417C317.109 88.9908 321.285 88.0084 326.074 87.3944C330.986 86.7803 335.591 86.4733 339.89 86.4733Z" fill="#1A2130"/>
<path d="M228.131 179.314C222.851 179.314 218.675 177.779 215.605 174.709C212.535 171.639 211 167.463 211 162.183V66.9472C212.351 66.7016 214.5 66.3946 217.447 66.0262C220.395 65.5349 223.219 65.2893 225.921 65.2893C228.745 65.2893 231.201 65.5349 233.289 66.0262C235.5 66.3946 237.342 67.1314 238.815 68.2367C240.289 69.3419 241.394 70.877 242.131 72.8419C242.868 74.8068 243.236 77.3857 243.236 80.5786V153.341H285.42C286.28 154.692 287.078 156.534 287.815 158.867C288.552 161.078 288.92 163.411 288.92 165.867C288.92 170.779 287.876 174.279 285.789 176.367C283.701 178.332 280.938 179.314 277.499 179.314H228.131Z" fill="#1A2130"/>
</svg>
